<?xml version="1.0" encoding="UTF-8" standalone="no"?>
<!-- Created with Inkscape (http://www.inkscape.org/) -->

<svg
   width="120.58407mm"
   height="122.61148mm"
   viewBox="0 0 120.58407 122.61148"
   version="1.1"
   id="svg1"
   xml:space="preserve"
   xmlns:inkscape="http://www.inkscape.org/namespaces/inkscape"
   xmlns:sodipodi="http://sodipodi.sourceforge.net/DTD/sodipodi-0.dtd"
   xmlns="http://www.w3.org/2000/svg"
   xmlns:svg="http://www.w3.org/2000/svg"><sodipodi:namedview
     id="namedview1"
     pagecolor="#ffffff"
     bordercolor="#000000"
     borderopacity="0.25"
     inkscape:showpageshadow="2"
     inkscape:pageopacity="0.0"
     inkscape:pagecheckerboard="0"
     inkscape:deskcolor="#d1d1d1"
     inkscape:document-units="mm" /><defs
     id="defs1" /><g
     inkscape:label="Layer 1"
     inkscape:groupmode="layer"
     id="layer1"
     transform="translate(-44.939221,-87.096151)"><path
       style="fill:#bf1f28;stroke:none"
       d="m 100.98158,87.361239 c -10.102339,1.326429 -19.15624,3.864808 -27.781247,9.589305 -7.15933,4.751716 -13.392001,10.924146 -18.16234,18.079666 -18.059899,27.08986 -11.355773,65.32918 15.78109,83.86536 13.086137,8.93866 29.074026,12.24707 44.714587,10.25077 37.22709,-4.75153 57.99981,-45.00356 47.08828,-79.29947 -5.36586,-16.86534 -19.64362,-30.895205 -35.7112,-37.795607 -7.6779,-3.297361 -17.5187,-5.794309 -25.92917,-4.690024 m 1.5875,1.09835 c 8.52324,-0.412144 16.14913,2.801557 22.48939,8.390113 1.87141,1.649536 3.05262,4.089078 5.0377,5.576458 2.96163,2.2191 6.36721,3.67403 9.25,6.10563 7.21569,6.08635 12.79615,14.21234 15.78109,23.16717 10.63555,31.90661 -10.9509,69.11264 -45.67901,70.63333 -9.645349,0.42236 -19.775638,-1.54024 -28.310417,-6.15666 -21.803915,-11.79361 -33.465665,-38.30081 -26.790289,-62.36001 2.464112,-8.88108 7.613511,-17.50911 14.354872,-23.78881 2.374169,-2.21159 5.239191,-3.61673 7.648217,-5.68303 2.155848,-1.84915 3.283,-4.961981 5.320247,-7.040456 5.631807,-5.745789 12.973595,-8.460538 20.8982,-8.843735 m 2.91042,75.783121 c 5.31168,-10.08456 11.7518,-19.57868 17.13606,-29.63334 2.4555,-4.58544 4.65732,-9.54988 4.83375,-14.81666 0.14124,-4.21634 -0.18522,-8.26953 -1.94395,-12.17084 -6.1678,-13.681713 -25.32246,-17.167555 -36.959193,-8.529951 -8.151053,6.050281 -11.085657,16.986461 -8.110213,26.521621 2.298932,7.36719 7.559887,13.87964 11.96668,20.10833 3.021352,4.27048 5.941821,8.61202 8.843536,12.96459 1.17663,1.76494 2.30511,4.57104 4.23333,5.55625 m -4.49792,-62.62969 c 4.7645,-0.61914 9.81426,0.62147 13.44884,3.84135 7.92798,7.0234 6.82284,20.16423 -2.33633,25.59538 -1.91177,1.13363 -4.14735,1.87391 -6.35001,2.16015 -2.45363,0.31884 -5.04739,0.0656 -7.408329,-0.6435 -15.95539,-4.79214 -13.653948,-28.83525 2.645829,-30.95338 m 32.01459,9.9776 c 0.95165,5.1262 0.67958,10.61611 -0.84806,15.61042 -0.7752,2.53439 -2.12774,4.87898 -2.85611,7.40833 h 5.02709 c 0,-2.46298 -0.69412,-6.15108 0.15964,-8.46666 0.93951,-2.54814 4.87033,-5.26863 6.98411,-6.87917 -1.61397,-2.79213 -5.35673,-6.62425 -8.46667,-7.67292 m -59.26667,2.38125 c -4.40603,2.05466 -8.206933,8.4352 -10.234028,12.7 -0.52763,1.11009 -2.128768,3.48266 -1.615876,4.71759 0.517356,1.24567 4.359031,4.5714 5.764487,4.32378 1.488681,-0.26228 3.108636,-2.30199 4.233333,-3.24177 0.950403,-0.79414 2.920078,-1.88786 3.22461,-3.16418 0.37224,-1.56009 -0.997618,-4.20215 -1.256565,-5.81042 -0.520485,-3.23262 -0.254755,-6.29243 -0.115961,-9.525 m 71.70209,10.58334 c -3.07614,0.86342 -5.02709,3.86769 -5.02709,6.87916 0,0.81013 -0.25982,2.3199 0.46098,2.90307 1.20491,0.97486 5.1672,0.28218 6.68277,0.27173 0.54602,-0.004 1.46481,0.11088 1.82004,-0.42403 0.71122,-1.07096 -1.02101,-4.12276 -1.49747,-5.13202 -0.73107,-1.54858 -1.63642,-2.98953 -2.43923,-4.49791 m -67.468757,10.84791 c -1.128827,0.91851 -5.186101,3.4379 -5.017285,5.04689 0.10778,1.02726 1.656387,1.9444 2.371452,2.55417 2.016628,1.71966 4.102212,3.35268 6.085417,5.11222 0.689763,0.61197 1.649669,1.76785 2.645833,1.81165 1.126999,0.0496 2.194392,-1.37949 2.910417,-2.08951 v -0.26458 c -2.879092,-3.74562 -5.242154,-9.29151 -8.995834,-12.17084 m -18.520834,2.38125 c -1.36385,7.23869 -1.323258,14.53894 0.529167,21.69584 1.779211,-0.83664 2.778983,-3.58599 4.7625,-3.89669 3.3822,-0.52977 7.219527,4.00938 10.583334,2.93267 1.051716,-0.33664 1.896795,-1.45111 2.64461,-2.21098 0.658111,-0.66873 1.193952,-1.27013 1.588723,-2.11667 l -13.758334,-11.44874 -6.35,-4.95543 m 63.235421,9.525 h 11.90625 v -6.61458 c -2.13872,0 -5.95017,-0.81869 -7.88851,-0.0539 -1.73761,0.68561 -3.70466,4.93369 -4.01774,6.66848 m 29.10417,0.26459 -0.52917,-6.87917 c -2.68295,0 -7.55351,-1.0676 -9.97006,0.15862 -1.14648,0.58176 -0.90571,5.70343 0.0717,6.44861 0.71208,0.54292 2.17888,0.27194 3.01922,0.27194 h 7.40834 m -69.056257,13.49375 c 3.242479,1.4373 7.595423,3.41534 11.112501,3.87668 1.111197,0.14575 3.037916,-0.7628 3.144988,-2.03501 0.08429,-1.00157 -1.101677,-2.14163 -1.631595,-2.9 -1.518912,-2.17376 -2.940833,-4.41632 -4.42381,-6.61459 -2.660113,0.90432 -7.017668,5.13309 -8.202084,7.67292 m 52.122917,-7.67292 h -11.1125 c -1.30053,0 -3.52733,-0.42315 -4.67553,0.27193 -0.8102,0.49048 -1.26484,1.60703 -1.76552,2.37391 -0.65671,1.00586 -2.31336,2.68583 -2.22344,3.95833 0.1226,1.73513 4.45248,4.18847 5.75408,5.21246 1.07374,0.84474 3.01891,3.19484 4.47321,3.17704 1.2187,-0.0149 2.19325,-2.46848 2.72341,-3.352 2.1905,-3.65052 5.54165,-7.58352 6.82629,-11.64167 m -3.96875,19.84375 c 2.27449,1.63508 4.42733,3.43705 6.61459,5.18592 0.73739,0.5896 1.83806,1.82173 2.86448,1.79349 1.67251,-0.046 3.71873,-4.37928 4.48995,-5.65649 3.68692,-6.10582 6.66373,-13.68119 6.66848,-20.90208 -2.28548,0 -6.95599,-0.89653 -8.93949,0.27193 -1.44667,0.85222 -2.48785,3.6043 -3.33709,5.01973 -2.63478,4.39141 -6.91875,9.38651 -8.36092,14.2875 m -41.275,-3.175 c -5.421722,-2.53551 -11.517599,-3.88201 -17.197917,-5.73345 -1.577567,-0.5142 -4.701338,-2.27089 -6.304882,-1.40192 -7.265182,3.93701 0.222713,12.70779 3.624546,16.66037 1.103125,1.28172 2.736825,3.73233 4.532419,4.04511 1.531686,0.2668 3.289226,-2.04534 4.233334,-2.98677 3.503246,-3.49333 8.254002,-6.55895 11.1125,-10.58334 m 17.99167,2.91042 c 5.6551,3.52165 10.63039,8.31162 15.875,12.40459 1.57895,1.23223 3.84759,4.12224 5.82083,4.53752 2.07524,0.43675 6.10716,-3.64602 6.87917,-5.30044 -6.23262,-3.58549 -11.85176,-9.05789 -17.4625,-13.54663 -1.44802,-1.15845 -4.65788,-4.83283 -6.56579,-4.807 -1.63431,0.0221 -4.27364,5.29992 -4.54671,6.71196 m -28.045837,15.34583 c 1.329284,0.89602 3.874324,3.10318 5.556251,2.92247 1.447537,-0.15553 2.933852,-2.08694 3.96875,-2.998 3.403164,-2.99594 6.729463,-6.08041 10.054167,-9.1614 1.103619,-1.02273 3.659049,-2.47555 4.018149,-4.00265 0.37744,-1.60502 -1.38079,-4.95838 -2.16607,-6.33958 -2.996333,1.38903 -5.537618,4.62087 -7.937496,6.85548 -4.333013,4.03461 -10.080409,7.87857 -13.493751,12.72368 m 30.162497,-6.35 -0.50691,10.62825 0.40198,3.38732 3.8091,0.0725 10.05417,-2.71096 -4.49792,-4.12105 -9.26042,-7.25604 m -6.61458,1.85209 c -3.284823,3.27576 -8.656544,6.47808 -10.847916,10.58333 2.491874,0.57126 7.772896,2.86367 10.234636,1.69142 0.93462,-0.44506 0.59719,-2.17453 0.67555,-3.01434 0.24292,-2.60375 0.96108,-6.82164 -0.0623,-9.26041 z"
       id="path241077"
       inkscape:label="logo" /></g></svg>
